# xmcd
#
# Track frame offsets: 
#        150
#        10353
#        23314
#        34948
#        45482
#        56133
#        72239
#        85266
#        94047
#        106576
#        119049
#        130682
#        142991
#        155923
#        165975
#        178484
#        187476
#
# Disc length: 2649 seconds
#
# Revision: 0
# Processed by: cddbd v1.5.2PL0 Copyright (c) Steve Scherf et al.
# Submitted via: ExactAudioCopy v0.99pb4
#
DISCID=e90a5711
DTITLE=Connie Francis - Classic Album Collection - Country and Western
DTITLE=Golden Hits and Bonus Tracks - CD 3
DYEAR=2010
DGENRE=Pop
TTITLE0=Singing the Blues
TTITLE1=Tennessee Waltz
TTITLE2=Young Love
TTITLE3=Your Cheatin' Heart
TTITLE4=Bye bye Love
TTITLE5=Peace in the Valley
TTITLE6=Ma Special Angel
TTITLE7=Hearts of Stone
TTITLE8=Half as Much
TTITLE9=Cold, Cold Heart
TTITLE10=Let Me Go, Lover
TTITLE11=Anytime
TTITLE12=Sincerely
TTITLE13=Ain't That a Shame
TTITLE14=Silhouettes
TTITLE15=I'm Walkin'
TTITLE16=It's Only Make Believe
EXTD=
EXTT0=
EXTT1=
EXTT2=
EXTT3=
EXTT4=
EXTT5=
EXTT6=
EXTT7=
EXTT8=
EXTT9=
EXTT10=
EXTT11=
EXTT12=
EXTT13=
EXTT14=
EXTT15=
EXTT16=
PLAYORDER=
